<svg xmlns="http://www.w3.org/2000/svg" width="21.164" height="26.009" viewBox="0 0 21.164 26.009">
  <g id="apple" transform="translate(-75.262 -16.948)">
    <path id="Path_18" data-name="Path 18" d="M305.036,93.634a5.913,5.913,0,0,1,2.815-4.959,6.055,6.055,0,0,0-4.767-2.577c-2.006-.212-3.95,1.2-4.971,1.2-1.042,0-2.616-1.179-4.31-1.145a6.348,6.348,0,0,0-5.341,3.257c-2.311,4-.587,9.878,1.626,13.11,1.106,1.582,2.4,3.351,4.1,3.288,1.657-.067,2.275-1.057,4.276-1.057,1.98,0,2.562,1.057,4.289,1.016,1.779-.028,2.9-1.59,3.966-3.188a13.091,13.091,0,0,0,1.815-3.694,5.712,5.712,0,0,1-3.488-5.256Z" transform="translate(-212.103 -62.852)" fill="#fff"/>
    <path id="Path_19" data-name="Path 19" d="M331.927,65.97a5.806,5.806,0,0,0,1.331-4.17,5.919,5.919,0,0,0-3.831,1.983,5.523,5.523,0,0,0-1.365,4.015A4.892,4.892,0,0,0,331.927,65.97Z" transform="translate(-242.256 -44.852)" fill="#fff"/>
  </g>
</svg>
