<svg id="Layer_x0020_1" xmlns="http://www.w3.org/2000/svg" width="56.988" height="57.027" viewBox="0 0 56.988 57.027">
  <path id="path453685" d="M8.227,30.98a2.037,2.037,0,1,0,0,4.073h8.147a2.037,2.037,0,1,0,0-4.073Z" transform="translate(1.944 9.728)" fill="#2fcc37" fill-rule="evenodd"/>
  <path id="path453677" d="M36.5,27.883a2.072,2.072,0,0,0-1.445.591,2.046,2.046,0,0,0,0,2.878l.591.591H28.357a2.037,2.037,0,1,0,0,4.073h7.293l-.591.591a2.026,2.026,0,0,0-.591,1.445,2.072,2.072,0,0,0,.591,1.445,2.026,2.026,0,0,0,1.445.591,2.072,2.072,0,0,0,1.445-.591l4.073-4.073a.9.9,0,0,0,.145-.171.013.013,0,0,1,.013-.013,2.188,2.188,0,0,0,.237-.368V34.86a2.05,2.05,0,0,0,.2-.88.808.808,0,0,0-.013-.171c0-.053-.013-.105-.013-.145-.013-.066-.026-.118-.039-.184-.013-.039-.026-.079-.039-.131a.046.046,0,0,0-.013-.026l-.039-.118c0-.013-.013-.026-.013-.039a1.607,1.607,0,0,0-.223-.381c-.013-.013-.026-.039-.039-.053a2.284,2.284,0,0,0-.171-.2l-4.073-4.073A2.018,2.018,0,0,0,36.5,27.87h0Z" transform="translate(8.264 8.751)" fill="#2fcc37" fill-rule="evenodd"/>
  <path id="path453647" d="M8.227,18.59a2.037,2.037,0,1,0,0,4.073h8.147a2.037,2.037,0,0,0,0-4.073Z" transform="translate(1.944 5.837)" fill="#2fcc37" fill-rule="evenodd"/>
  <path id="path453623" d="M8.227,6.2a2.037,2.037,0,0,0,0,4.073h8.147a2.037,2.037,0,0,0,0-4.073Z" transform="translate(1.944 1.947)" fill="#2fcc37" fill-rule="evenodd"/>
  <path id="path453605" d="M6.11,0A6.141,6.141,0,0,0,0,6.11v8.147A6.1,6.1,0,0,0,1.577,18.33,6.1,6.1,0,0,0,0,22.4V30.55a6.1,6.1,0,0,0,1.577,4.073A6.1,6.1,0,0,0,0,38.7v8.147a6.141,6.141,0,0,0,6.11,6.11H32.8A14.232,14.232,0,1,0,48.841,29.92V22.43a6.1,6.1,0,0,0-1.577-4.073,6.1,6.1,0,0,0,1.577-4.073V6.136a6.141,6.141,0,0,0-6.11-6.11H6.1Zm0,4.073H42.744A1.99,1.99,0,0,1,44.781,6.11v8.147a1.99,1.99,0,0,1-2.037,2.037H6.11a1.99,1.99,0,0,1-2.037-2.037V6.11A1.99,1.99,0,0,1,6.11,4.073Zm0,16.28H42.744a1.99,1.99,0,0,1,2.037,2.037v6.255a14.862,14.862,0,0,0-2.037-.145A14.169,14.169,0,0,0,32.8,32.574H6.11a1.99,1.99,0,0,1-2.037-2.037V22.39A1.99,1.99,0,0,1,6.11,20.354ZM42.744,32.561a10.17,10.17,0,1,1-7.411,17.148,1.87,1.87,0,0,0-.342-.381,10.23,10.23,0,0,1,.053-13.271,1.392,1.392,0,0,0,.131-.158,10.137,10.137,0,0,1,7.569-3.351h0ZM6.11,36.634H29.88a14.219,14.219,0,0,0,0,12.22H6.11a1.99,1.99,0,0,1-2.037-2.037V38.671A1.99,1.99,0,0,1,6.11,36.634Z" fill="#2fcc37" fill-rule="evenodd"/>
</svg>
