<svg xmlns="http://www.w3.org/2000/svg" width="124.504" height="99.1" viewBox="0 0 124.504 99.1">
  <g id="Layer_x0020_1" transform="translate(-0.004 -0.001)">
    <path id="Path_14" data-name="Path 14" d="M106.645,76.914A53.245,53.245,0,0,1,32.339,89.1C-94.134-1.744,197.486-49.559,106.645,76.914Z" transform="translate(0)" fill="#ec1951" fill-rule="evenodd"/>
    <path id="Path_15" data-name="Path 15" d="M593.012,425.5a5.477,5.477,0,0,1-.143,1.226,5.735,5.735,0,0,1-.408,1.173,8.371,8.371,0,0,1-.588,1.047,8.206,8.206,0,0,1-.77.986v0a9.611,9.611,0,0,1-1.507,1.353,8.33,8.33,0,0,1-1.716.955v0a9.533,9.533,0,0,1-1.841.555,10.147,10.147,0,0,1-1.936.185,13.472,13.472,0,0,1-2.945-.343,17.519,17.519,0,0,1-3.03-.988,28.368,28.368,0,0,1-3.03-1.52,33.262,33.262,0,0,1-2.981-1.942q-1.512-1.1-2.893-2.283-1.4-1.2-2.745-2.526l-.006,0q-1.331-1.344-2.524-2.743-1.177-1.381-2.268-2.878l-.006-.006a35.163,35.163,0,0,1-1.936-2.991,27.735,27.735,0,0,1-1.486-2.964v0a17.57,17.57,0,0,1-.981-3.027,13.764,13.764,0,0,1-.332-2.96,10.42,10.42,0,0,1,.178-1.91,9.665,9.665,0,0,1,.521-1.807h0a8.707,8.707,0,0,1,.935-1.75,9.594,9.594,0,0,1,1.32-1.532h0a7.107,7.107,0,0,1,2.038-1.425,5.687,5.687,0,0,1,2.365-.517,4.623,4.623,0,0,1,.993.113,4.388,4.388,0,0,1,.926.317l0,0a4.171,4.171,0,0,1,.9.566,4.079,4.079,0,0,1,.753.816h0l3.875,5.461h0a8.172,8.172,0,0,1,.466.72,6.287,6.287,0,0,1,.344.7l0,0a4.475,4.475,0,0,1,.249.755,3.554,3.554,0,0,1,.1.794,3.437,3.437,0,0,1-.147.983,3.863,3.863,0,0,1-.406.908l0,0a5.92,5.92,0,0,1-.485.718h-.005a8.345,8.345,0,0,1-.639.724l0,0-1.095,1.139.016.04a8.7,8.7,0,0,0,.488.734q.364.5.868,1.1h0c.4.459.778.889,1.131,1.276s.762.819,1.215,1.281c.426.418.855.831,1.3,1.243.425.4.848.774,1.274,1.135.4.338.756.617,1.072.843a7.708,7.708,0,0,0,.805.512l.017.008,1.1-1.085,0,0a8.131,8.131,0,0,1,.741-.655,5.31,5.31,0,0,1,.716-.476,3.806,3.806,0,0,1,.9-.406,3.441,3.441,0,0,1,.993-.146,3.722,3.722,0,0,1,.766.084,4.338,4.338,0,0,1,.762.24,6.578,6.578,0,0,1,.714.344q.332.186.7.44l.026.016,5.529,3.925h0a4.236,4.236,0,0,1,.8.713,3.654,3.654,0,0,1,.578.912l.016.043a5.217,5.217,0,0,1,.265.855,4.511,4.511,0,0,1,.1.951Zm.05-15.583a1.358,1.358,0,1,1-2.716,0,10.324,10.324,0,0,0-10.334-10.334,1.358,1.358,0,1,1,0-2.716,13.041,13.041,0,0,1,13.049,13.049Zm-5.846,0a1.358,1.358,0,1,1-2.716,0,2.927,2.927,0,0,0-.388-1.188,7.707,7.707,0,0,0-1.2-1.681,6.071,6.071,0,0,0-1.573-1.245,2.887,2.887,0,0,0-1.327-.375,1.358,1.358,0,1,1,0-2.716,5.565,5.565,0,0,1,2.589.693,8.781,8.781,0,0,1,2.295,1.8,10.431,10.431,0,0,1,1.624,2.285A5.554,5.554,0,0,1,587.216,409.92Zm3.012,16.2a2.775,2.775,0,0,0,.068-.621,1.838,1.838,0,0,0-.039-.389,2.46,2.46,0,0,0-.11-.367h0a.978.978,0,0,0-.153-.244,1.514,1.514,0,0,0-.294-.257l-.016-.011-5.529-3.925v0c-.16-.109-.319-.206-.477-.3a3.918,3.918,0,0,0-.417-.206,1.7,1.7,0,0,0-.3-.09,1.069,1.069,0,0,0-.215-.02.752.752,0,0,0-.218.029,1.142,1.142,0,0,0-.262.12l-.08.043a2.578,2.578,0,0,0-.382.254,5.634,5.634,0,0,0-.486.443l-.01.006-1.27,1.253a2.289,2.289,0,0,1-1.634.677,2.786,2.786,0,0,1-.417-.03,2.351,2.351,0,0,1-.473-.126l-.059-.021-.182-.083c-.027-.013-.051-.024-.092-.04l-.127-.059a10.307,10.307,0,0,1-1.146-.72q-.582-.414-1.253-.981c-.459-.39-.914-.8-1.37-1.22-.434-.4-.888-.84-1.361-1.3l-.016-.016c-.413-.42-.843-.878-1.287-1.363s-.843-.934-1.193-1.339l-.011-.011q-.587-.694-.995-1.257a10.221,10.221,0,0,1-.712-1.109l-.1-.217c-.006-.017-.017-.044-.029-.072-.027-.063-.056-.132-.089-.219l-.048-.143a3.068,3.068,0,0,1-.064-.346,2.8,2.8,0,0,1-.029-.367,2.185,2.185,0,0,1,.665-1.628l0,0,1.251-1.3.016-.021a5.76,5.76,0,0,0,.436-.477l0,0a3.435,3.435,0,0,0,.286-.409l.021-.043a1.093,1.093,0,0,0,.119-.261.779.779,0,0,0,.03-.22.808.808,0,0,0-.022-.189,1.813,1.813,0,0,0-.1-.3l0-.021a3.52,3.52,0,0,0-.2-.406,5.314,5.314,0,0,0-.311-.482l0-.006-3.875-5.461-.011-.016a1.357,1.357,0,0,0-.255-.279,1.47,1.47,0,0,0-.317-.194l-.016-.01a1.637,1.637,0,0,0-.36-.124,1.91,1.91,0,0,0-.409-.04,3.01,3.01,0,0,0-1.25.272,4.451,4.451,0,0,0-1.273.905l-.021.021a6.831,6.831,0,0,0-.949,1.1,5.9,5.9,0,0,0-.637,1.2l-.006.01a6.924,6.924,0,0,0-.376,1.3,7.731,7.731,0,0,0-.125,1.422,11.031,11.031,0,0,0,.269,2.376,14.823,14.823,0,0,0,.82,2.556h0a24.878,24.878,0,0,0,1.339,2.678,32.189,32.189,0,0,0,1.787,2.757h0q.987,1.354,2.137,2.7,1.135,1.331,2.384,2.591t2.594,2.386q1.355,1.157,2.723,2.156a30.432,30.432,0,0,0,2.737,1.782,25.572,25.572,0,0,0,2.744,1.37,14.665,14.665,0,0,0,2.553.839,10.8,10.8,0,0,0,2.361.268,7.413,7.413,0,0,0,1.427-.133,6.759,6.759,0,0,0,1.311-.4h0a5.713,5.713,0,0,0,1.17-.65,7.016,7.016,0,0,0,1.082-.981l0,0a5.47,5.47,0,0,0,.513-.665,5.656,5.656,0,0,0,.4-.707,3.017,3.017,0,0,0,.217-.621Z" transform="translate(-512.746 -365.379)" fill="#fefefe"/>
  </g>
</svg>
