<svg xmlns="http://www.w3.org/2000/svg" width="25.702" height="28.727" viewBox="0 0 25.702 28.727">
  <g id="gplay" transform="translate(-68.5 -17.677)">
    <path id="path39" d="M803.23,236.7l-.012-.008-5.778-3.349-6.51,5.793,6.532,6.531,5.748-3.316a3.215,3.215,0,0,0,.019-5.651Z" transform="translate(-710.701 -207.45)" fill="#f6b60b"/>
    <g id="Group_1" data-name="Group 1" transform="translate(68.611 31.396)">
      <path id="path37" d="M683.6,289.84,671.71,302.46a.023.023,0,0,0,0,.008,3.214,3.214,0,0,0,4.731,1.937l.038-.022,13.384-7.723-6.264-6.82h0Zm0,0Z" transform="translate(-671.71 -289.84)" fill="#eb3131"/>
    </g>
    <g id="Group_2" data-name="Group 2" transform="translate(68.5 20.064)">
      <path id="path41" d="M670.679,173.56a3.165,3.165,0,0,0-.109.826v22.3a3.109,3.109,0,0,0,.109.825l12.3-12.3-12.3-11.655h0Zm0,0Z" transform="translate(-670.57 -173.56)" fill="#5778c5"/>
    </g>
    <g id="Group_3" data-name="Group 3" transform="translate(68.61 17.677)">
      <path id="path43" d="M683.678,163.433l6.154-6.152-13.369-7.752a3.218,3.218,0,0,0-4.764,1.924v0l11.978,11.976Zm0,0Z" transform="translate(-671.7 -149.07)" fill="#3bad49"/>
    </g>
  </g>
</svg>
