<svg xmlns="http://www.w3.org/2000/svg" width="53.34" height="53.333" viewBox="0 0 53.34 53.333">
  <g id="Layer_x0020_1" transform="translate(759.01 134)">
    <path id="Path_16" data-name="Path 16" d="M12.871,0H40.429C45.353,0,48.5.691,50.568,2.749S53.33,7.963,53.33,12.874V29.146a.926.926,0,0,1-.007.138c-.069,4.524-.787,7.466-2.749,9.428-2.065,2.058-5.208,2.742-10.118,2.742H28.522v8.164h9.3a1.858,1.858,0,0,1,0,3.716H15.5a1.858,1.858,0,0,1,0-3.716h9.3V41.454H12.871v-.007c-4.918.014-8.06-.67-10.118-2.721C.784,36.757.066,33.808,0,29.277c0-.041-.007-.083-.007-.131V12.874c0-4.918.691-8.067,2.749-10.125S7.947,0,12.864,0ZM3.72,27.288H49.615V12.874c0-3.9-.414-6.257-1.658-7.494s-3.612-1.658-7.521-1.658H12.878c-3.888,0-6.251.414-7.494,1.658S3.727,8.986,3.727,12.874V27.288Zm45.826,3.723H3.789c.159,2.493.629,4.13,1.582,5.083,1.25,1.243,3.612,1.658,7.5,1.644v-.007H40.456c3.9,0,6.257-.407,7.5-1.651.96-.953,1.423-2.583,1.582-5.07Z" transform="translate(-759 -134)" fill="#ed2f59"/>
  </g>
</svg>
