<svg id="Layer_x0020_1" xmlns="http://www.w3.org/2000/svg" width="44.513" height="57.8" viewBox="0 0 44.513 57.8">
  <path id="形状" d="M27.547.629a22.552,22.552,0,0,0-10.581,0A22.093,22.093,0,0,0,12,2.5l-.544.283C11.154,2.481,9.273.6,9.273.6a2.052,2.052,0,0,0-2.9,2.9L8.008,5.135l-.654.59A22.176,22.176,0,0,0,0,22.258V49.977A7.822,7.822,0,0,0,7.824,57.8H36.69a7.822,7.822,0,0,0,7.823-7.823V22.258A22.176,22.176,0,0,0,37.16,5.725l-.654-.59c.2-.2,1.63-1.635,1.637-1.635a2.054,2.054,0,0,0,0-2.9v0a2.055,2.055,0,0,0-2.9,0L33.057,2.783,32.514,2.5A22.088,22.088,0,0,0,27.547.631ZM4.937,30.079H40.413v19.9A3.712,3.712,0,0,1,39.323,52.6l0,0A3.712,3.712,0,0,1,36.69,53.7H7.824A3.724,3.724,0,0,1,4.1,49.976v-19.9h.837Zm4.728-20.9A18.155,18.155,0,0,1,40.414,22.256v3.723H4.1V22.256l0-.013.012-.667a18.1,18.1,0,0,1,5.549-12.4Zm5.382,5.854a2.054,2.054,0,0,0-2.9,0v0a2.054,2.054,0,0,0,0,2.9h0a2.05,2.05,0,1,0,2.9-2.9Zm17.321,0a2.052,2.052,0,1,0,0,2.9h0a2.058,2.058,0,0,0,0-2.9Z" transform="translate(0 0)" fill="#ed2f59"/>
</svg>
