<svg xmlns="http://www.w3.org/2000/svg" width="52.963" height="61.801" viewBox="0 0 52.963 61.801">
  <g id="Layer_x0020_1" transform="translate(0.023 -0.003)">
    <path id="形状" d="M33.4,14.112l-2.351.97a14.116,14.116,0,0,1-1.84.611,7.3,7.3,0,0,1-3.637,0,14.481,14.481,0,0,1-1.84-.611l-1.847-.762-1.014-.4a14.7,14.7,0,0,0-2.89-.791,10.33,10.33,0,0,0-3.393.007,17.237,17.237,0,0,0-7.44,3.041,16.317,16.317,0,0,0-5,6.074A21.807,21.807,0,0,0,.195,28.978a28.6,28.6,0,0,0,.1,7.764,41.789,41.789,0,0,0,2.006,8A40.358,40.358,0,0,0,5.78,52.076a28.8,28.8,0,0,0,4.68,5.895,16.2,16.2,0,0,0,5.09,3.379,7.132,7.132,0,0,0,3.2.424,18.11,18.11,0,0,0,3.436-.661c1.006-.28,2.451-.769,3.508-.942.338-.072.633-.129.891-.173a4.953,4.953,0,0,1,1.6,0c.259.036.554.093.891.173.848.144,2.063.546,2.875.769l1.28.345a15.585,15.585,0,0,0,3.091.51,7.012,7.012,0,0,0,2.9-.439A15.262,15.262,0,0,0,43.3,58.869a24.738,24.738,0,0,0,3.9-4.155h0A35.535,35.535,0,0,0,50.379,49.6a41.267,41.267,0,0,0,2.444-5.873l.007-.014a2.259,2.259,0,0,0-.144-1.732,2.286,2.286,0,0,0-1.3-1.136l-.014-.007a8.721,8.721,0,0,1-.467-16.4,1.852,1.852,0,0,0,.295-.144,2.324,2.324,0,0,0,1-2.818,2.209,2.209,0,0,0-.144-.295,16.042,16.042,0,0,0-4.9-5.327,17.359,17.359,0,0,0-6.973-2.7,10.583,10.583,0,0,0-3.7.05,16.241,16.241,0,0,0-3.084.935ZM20.949,18.864l1.071.439a20.078,20.078,0,0,0,2.48.812,12.135,12.135,0,0,0,2.89.359,16.409,16.409,0,0,0,6.441-1.61l.661-.273a16.97,16.97,0,0,1,2.559-.877,5.871,5.871,0,0,1,2.372-.086,13.826,13.826,0,0,1,3.738,1.157,11.233,11.233,0,0,1,2.847,1.963l.726.69-.791.611a13.271,13.271,0,0,0,1.222,21.81l.633.388-.28.683a35.212,35.212,0,0,1-1.812,3.731,29.867,29.867,0,0,1-2.135,3.292,20.641,20.641,0,0,1-2.947,3.206,11.225,11.225,0,0,1-3.077,1.955,3.531,3.531,0,0,1-1.747.158,10.044,10.044,0,0,1-1.661-.381l-1.409-.46-.367-.115-1.323-.367c-.575-.151-1.193-.295-1.833-.4a10.007,10.007,0,0,0-3.623,0c-.633.108-1.251.252-1.826.4l-1.33.367-.359.108h0l-1.409.46A10.044,10.044,0,0,1,19,57.266a3.523,3.523,0,0,1-1.747-.158,12.1,12.1,0,0,1-3.939-2.753,24.512,24.512,0,0,1-3.623-4.673,35.284,35.284,0,0,1-3.084-6.506,37.214,37.214,0,0,1-1.776-7.1,24.019,24.019,0,0,1-.108-6.333,17.311,17.311,0,0,1,1.553-5.507,11.658,11.658,0,0,1,3.407-4.249,12.618,12.618,0,0,1,5.693-2.365,6.058,6.058,0,0,1,2.631.151,22.043,22.043,0,0,1,2.955,1.093ZM27.275,2.582h0A9,9,0,0,0,24.96,6.744c-.417,1.661-.331,3.07.093,3.5s1.84.51,3.5.093a9,9,0,0,0,4.162-2.315,9.042,9.042,0,0,0,2.437-4.716c.259-1.423.151-2.574-.223-2.94S33.414-.114,31.99.145a9.016,9.016,0,0,0-4.716,2.437Z" transform="translate(0 0)" fill="#ed2f59"/>
  </g>
</svg>
