<svg id="Layer_x0020_1" xmlns="http://www.w3.org/2000/svg" width="50.453" height="64.228" viewBox="0 0 50.453 64.228">
  <path id="Path_13" data-name="Path 13" d="M45.867,25.226a20.641,20.641,0,1,0-41.281,0c0,8.471,6.772,19.5,20.641,32.724C39.1,44.731,45.867,33.7,45.867,25.226ZM9.172,59.633h11.2Q0,39.65,0,25.226a25.226,25.226,0,0,1,50.453,0q0,14.424-20.367,34.407h11.2a2.3,2.3,0,0,1,0,4.594H9.172a2.3,2.3,0,0,1,0-4.594ZM25.226,32.109a6.883,6.883,0,1,0-6.883-6.883A6.885,6.885,0,0,0,25.226,32.109Zm0,4.586A11.469,11.469,0,1,1,36.7,25.226,11.466,11.466,0,0,1,25.226,36.7Z" fill="#ff681c"/>
</svg>
