<svg xmlns="http://www.w3.org/2000/svg" width="18.536" height="21" viewBox="0 0 18.536 21">
  <g id="Layer_x0020_1" transform="translate(0.01 0.01)">
    <path id="Path_8" data-name="Path 8" d="M15.278,8.39H15V5.7a5.712,5.712,0,0,0-11.424,0V8.39h-.28a3.252,3.252,0,0,0-3.3,3.3v5.992a3.252,3.252,0,0,0,3.3,3.3H15.222a3.252,3.252,0,0,0,3.3-3.3V11.694a3.252,3.252,0,0,0-3.3-3.3ZM5.422,5.7a3.864,3.864,0,1,1,7.728,0V8.39H5.366V5.7ZM16.79,17.63a1.53,1.53,0,0,1-1.512,1.512H3.35A1.53,1.53,0,0,1,1.838,17.63V11.638A1.53,1.53,0,0,1,3.35,10.126H15.278a1.53,1.53,0,0,1,1.512,1.512V17.63Z" fill="#fefefe"/>
  </g>
</svg>
