<svg xmlns="http://www.w3.org/2000/svg" width="197.289" height="36.4" viewBox="0 0 197.289 36.4">
  <g id="Layer_x0020_1" transform="translate(-0.01 0)">
    <path id="Path_1" data-name="Path 1" d="M9.378,35.233V32.007l8.889-6.945L31.42,36.491a4.366,4.366,0,0,0,3.343,1.322h7.2c1.438,0,1.762-2.1.739-3.045L25.356,19.438,42.876,4.925c1.063-.881.7-3.045-.661-3.045l-7.425.078a4.513,4.513,0,0,0-3.3,1.283L9.224,21.382l.155-17C9.418,2.658,8.757,1.958,7.4,1.958H2.032C.671,1.958.01,2.8.01,4.537V35.247c0,1.723.661,2.566,2.022,2.566H7.4c1.361,0,1.982-.842,1.982-2.579Z" transform="translate(0 -1.775)" fill="#fefefe"/>
    <path id="Path_2" data-name="Path 2" d="M2530.452,39.7a1.387,1.387,0,0,0,.881,2.423h6.829a3.755,3.755,0,0,0,3.123-1.024c1.62-1.5,13.114-11.831,13.153-11.831.881.738,11.273,10.133,13.152,11.831.778.8,1.464,1.024,3.123,1.024h6.725a1.392,1.392,0,0,0,.92-2.423c-5-4.328-28.508-26.046-35.661-32.577a3.7,3.7,0,0,0-3.045-1.063h-7.2a1.42,1.42,0,0,0-.882,2.462c7.568,7.166,12.336,11.649,16.055,14.993-3.68,3.253-8.864,8.319-17.169,16.185Z" transform="translate(-2389.21 -5.723)" fill="#fefefe"/>
    <path id="Path_3" data-name="Path 3" d="M2995.49,10.95c2.566-2.384,5.624-5.145,9.071-8.449a1.432,1.432,0,0,0-.92-2.5h-6.427a3.865,3.865,0,0,0-3.123,1.062c-1.464,1.4-9.848,8.747-12.751,11.455h9.771c2.216.013,2.734-.1,4.38-1.568Z" transform="translate(-2815.426)" fill="#ec1951"/>
    <path id="Path_4" data-name="Path 4" d="M1704.012,5.833c-5.184,0-8.993,2.786-10.354,7.2a13.06,13.06,0,0,0-.519,3.706v14.28c0,6.505,4.367,10.872,10.872,10.872h30.555a1.777,1.777,0,0,0,2.022-2.022V35.948a1.776,1.776,0,0,0-2.022-2.021h-27.614c-2.6,0-4.3-1.361-4.7-3.642a5.666,5.666,0,0,1-.116-1.14v-.519a1.21,1.21,0,0,1,1.179-1.283h25.67c6.427,0,9.913-2.825,9.913-9.252v-1.8c0-6.388-3.486-10.47-9.913-10.47h-24.971v.013Zm-1.879,12.777a4.414,4.414,0,0,1,4.808-4.782H1726.7c2.281,0,3.123,1.024,3.123,3.084v.376c0,1.983-.842,3.123-3.123,3.123h-22.211a2.17,2.17,0,0,0-2.346,1.361V18.609h-.013Z" transform="translate(-1598.911 -5.496)" fill="#fefefe"/>
    <path id="Path_5" data-name="Path 5" d="M805.632,41.905H830.1c6.544,0,10.988-4.367,10.988-10.872V16.741c0-6.544-4.445-10.911-10.988-10.911H805.632c-6.505,0-10.872,4.367-10.872,10.911V31.033C794.76,37.538,799.127,41.905,805.632,41.905Zm2.9-28.067h18.66a4.407,4.407,0,0,1,4.782,4.782V29.167a4.407,4.407,0,0,1-4.782,4.782h-18.66a4.406,4.406,0,0,1-4.781-4.782V18.619a4.406,4.406,0,0,1,4.781-4.782Z" transform="translate(-750.524 -5.506)" fill="#fefefe"/>
    <path id="Path_6" data-name="Path 6" d="M3447.3,7a2.728,2.728,0,0,0,2.825-2.786A2.768,2.768,0,0,0,3447.3,1.39a2.728,2.728,0,0,0-2.786,2.825A2.7,2.7,0,0,0,3447.3,7Zm0-.363a2.282,2.282,0,0,1-2.384-2.423,2.32,2.32,0,0,1,2.384-2.462,2.344,2.344,0,0,1,2.423,2.462A2.313,2.313,0,0,1,3447.3,6.639Zm-1.075-1h.4V4.513h.738l.777,1.141h.479l-.8-1.179a.747.747,0,0,0,.622-.842c0-.583-.3-.842-1-.842h-1.218V5.642Zm.415-1.5V3.113h.739c.479,0,.66.142.66.518s-.181.518-.66.518h-.739V4.137Z" transform="translate(-3252.822 -1.313)" fill="#fefefe"/>
  </g>
</svg>
