<svg xmlns="http://www.w3.org/2000/svg" width="23.027" height="30.706" viewBox="0 0 23.027 30.706">
  <path id="Path_17" data-name="Path 17" d="M140.94,35.7h-1.917v-3.84a7.679,7.679,0,0,0-15.358,0V35.7h-1.917a1.918,1.918,0,0,0-1.917,1.917V52.969a1.915,1.915,0,0,0,1.917,1.917H140.94a1.914,1.914,0,0,0,1.917-1.917V37.616A1.918,1.918,0,0,0,140.94,35.7Zm-9.6,11.519a1.917,1.917,0,1,1,1.917-1.917A1.918,1.918,0,0,1,131.344,47.217Zm3.84-11.519H127.5v-3.84a3.84,3.84,0,1,1,7.679,0V35.7Z" transform="translate(-119.83 -24.18)" fill="#ed2f59"/>
</svg>
