<svg id="Layer_x0020_1" xmlns="http://www.w3.org/2000/svg" width="18.323" height="20.4" viewBox="0 0 18.323 20.4">
  <path id="Path_9" data-name="Path 9" d="M2.152,3.219V17.181a1.023,1.023,0,0,0,.15.543,1.1,1.1,0,0,0,.936.543.954.954,0,0,0,.543-.15l11.866-6.981a.9.9,0,0,0,.374-.374,1.128,1.128,0,0,0,.15-.543,1.07,1.07,0,0,0-.524-.917L3.781,2.321a1.128,1.128,0,0,0-.543-.15,1.128,1.128,0,0,0-.543.15.993.993,0,0,0-.393.393,1.023,1.023,0,0,0-.15.543ZM0,17.181V3.219A3.169,3.169,0,0,1,.449,1.591,3.33,3.33,0,0,1,1.628.43,3.188,3.188,0,0,1,3.238,0,3.291,3.291,0,0,1,4.866.449L16.732,7.43a3.2,3.2,0,0,1,1.142,4.4,3.331,3.331,0,0,1-1.142,1.142L4.866,19.951a3.107,3.107,0,0,1-1.628.449,3.239,3.239,0,0,1-1.61-.43,3.333,3.333,0,0,1-1.179-1.16A3.169,3.169,0,0,1,0,17.181Z" fill="#ed2f59"/>
</svg>
